<?xml version="1.0"?>
<!-- Generated by SVGo -->
<svg width="1000" height="800"
     xmlns="http://www.w3.org/2000/svg" 
     xmlns:xlink="http://www.w3.org/1999/xlink">
<title>/Users/deepak/workspace/sifts/react-dmarc-technical-task/sdk_tmp/runs/a1e227c14f22273fe7e73b245638087754928f12/grip-stats.svg</title>
<rect x="0" y="0" width="1000" height="800" style="fill: #ffffff"/>
<g style="font-family: Helvetica; font-size: 12">
<rect x="0" y="0" width="1000" height="400" style="stroke: #ffffff; opacity: 1.0000; fill: #ffffff; fill-opacity: 1.0000"/>
<text x="500" y="16" style="text-anchor:middle; fill:#635f5d; font-family:Consolas, Menlo, Monaco, monospace, serif">impl</text>
<text x="425" y="394" style="text-anchor:middle">  Time [s]  </text>
<line x1="84" y1="346" x2="84" y2="358" style="stroke:#000000; stroke-width: 1; fill:none; opacity: 1.000; "/>
<text x="84" y="376" style="text-anchor:middle">0.0ms</text>
<line x1="146" y1="346" x2="146" y2="358" style="stroke:#000000; stroke-width: 1; fill:none; opacity: 1.000; "/>
<text x="146" y="376" style="text-anchor:middle">50.0ms</text>
<line x1="208" y1="346" x2="208" y2="358" style="stroke:#000000; stroke-width: 1; fill:none; opacity: 1.000; "/>
<text x="208" y="376" style="text-anchor:middle">100.0ms</text>
<line x1="270" y1="346" x2="270" y2="358" style="stroke:#000000; stroke-width: 1; fill:none; opacity: 1.000; "/>
<text x="270" y="376" style="text-anchor:middle">150.0ms</text>
<line x1="332" y1="346" x2="332" y2="358" style="stroke:#000000; stroke-width: 1; fill:none; opacity: 1.000; "/>
<text x="332" y="376" style="text-anchor:middle">200.0ms</text>
<line x1="394" y1="346" x2="394" y2="358" style="stroke:#000000; stroke-width: 1; fill:none; opacity: 1.000; "/>
<text x="394" y="376" style="text-anchor:middle">250.0ms</text>
<line x1="456" y1="346" x2="456" y2="358" style="stroke:#000000; stroke-width: 1; fill:none; opacity: 1.000; "/>
<text x="456" y="376" style="text-anchor:middle">300.0ms</text>
<line x1="518" y1="346" x2="518" y2="358" style="stroke:#000000; stroke-width: 1; fill:none; opacity: 1.000; "/>
<text x="518" y="376" style="text-anchor:middle">350.0ms</text>
<line x1="580" y1="346" x2="580" y2="358" style="stroke:#000000; stroke-width: 1; fill:none; opacity: 1.000; "/>
<text x="580" y="376" style="text-anchor:middle">400.0ms</text>
<line x1="642" y1="346" x2="642" y2="358" style="stroke:#000000; stroke-width: 1; fill:none; opacity: 1.000; "/>
<text x="642" y="376" style="text-anchor:middle">450.0ms</text>
<line x1="704" y1="346" x2="704" y2="358" style="stroke:#000000; stroke-width: 1; fill:none; opacity: 1.000; "/>
<text x="704" y="376" style="text-anchor:middle">500ms</text>
<line x1="766" y1="346" x2="766" y2="358" style="stroke:#000000; stroke-width: 1; fill:none; opacity: 1.000; "/>
<text x="766" y="376" style="text-anchor:middle">550ms</text>
<line x1="84" y1="352" x2="766" y2="352" style="stroke:#000000; stroke-width: 2; fill:none; opacity: 1.000; "/>
<text x="24" y="191" transform="rotate(-90 24 191)" style="text-anchor:middle">Frequency [count]</text>
<line x1="66" y1="340" x2="78" y2="340" style="stroke:#000000; stroke-width: 1; fill:none; opacity: 1.000; "/>
<text x="60" y="344" style="text-anchor:end">0</text>
<line x1="66" y1="291" x2="78" y2="291" style="stroke:#000000; stroke-width: 1; fill:none; opacity: 1.000; "/>
<text x="60" y="295" style="text-anchor:end">1</text>
<line x1="66" y1="241" x2="78" y2="241" style="stroke:#000000; stroke-width: 1; fill:none; opacity: 1.000; "/>
<text x="60" y="245" style="text-anchor:end">2</text>
<line x1="66" y1="191" x2="78" y2="191" style="stroke:#000000; stroke-width: 1; fill:none; opacity: 1.000; "/>
<text x="60" y="195" style="text-anchor:end">3</text>
<line x1="66" y1="142" x2="78" y2="142" style="stroke:#000000; stroke-width: 1; fill:none; opacity: 1.000; "/>
<text x="60" y="146" style="text-anchor:end">4</text>
<line x1="66" y1="92" x2="78" y2="92" style="stroke:#000000; stroke-width: 1; fill:none; opacity: 1.000; "/>
<text x="60" y="96" style="text-anchor:end">5</text>
<line x1="66" y1="42" x2="78" y2="42" style="stroke:#000000; stroke-width: 1; fill:none; opacity: 1.000; "/>
<text x="60" y="46" style="text-anchor:end">6</text>
<line x1="72" y1="340" x2="72" y2="42" style="stroke:#000000; stroke-width: 2; fill:none; opacity: 1.000; "/>
<rect x="146" y="42" width="51" height="298" style="stroke:#0f8c79; stroke-opacity: 1.000; stroke-width: 1; fill: #7abfcc; fill-opacity: 1.000"/>
<rect x="270" y="291" width="51" height="49" style="stroke:#0f8c79; stroke-opacity: 1.000; stroke-width: 1; fill: #7abfcc; fill-opacity: 1.000"/>
<line x1="146" y1="41" x2="198" y2="41" style="stroke:#ffffff; stroke-width: 2; fill:none; opacity: 1.000; "/>
<line x1="198" y1="41" x2="198" y2="340" style="stroke:#ffffff; stroke-width: 2; fill:none; opacity: 1.000; "/>
<line x1="270" y1="290" x2="322" y2="290" style="stroke:#ffffff; stroke-width: 2; fill:none; opacity: 1.000; "/>
<line x1="322" y1="290" x2="322" y2="340" style="stroke:#ffffff; stroke-width: 2; fill:none; opacity: 1.000; "/>
<rect x="128" y="241" width="52" height="99" style="stroke:#8e6c8a; stroke-opacity: 1.000; stroke-width: 1; fill: #b396ad; fill-opacity: 1.000"/>
<line x1="128" y1="240" x2="181" y2="240" style="stroke:#ffffff; stroke-width: 2; fill:none; opacity: 1.000; "/>
<line x1="181" y1="240" x2="181" y2="340" style="stroke:#ffffff; stroke-width: 2; fill:none; opacity: 1.000; "/>
<rect x="111" y="291" width="52" height="49" style="stroke:#e3ba22; stroke-opacity: 1.000; stroke-width: 1; fill: #f2da57; fill-opacity: 1.000"/>
<line x1="111" y1="290" x2="164" y2="290" style="stroke:#ffffff; stroke-width: 2; fill:none; opacity: 1.000; "/>
<line x1="164" y1="290" x2="164" y2="340" style="stroke:#ffffff; stroke-width: 2; fill:none; opacity: 1.000; "/>
<rect x="94" y="291" width="52" height="49" style="stroke:#42a5b3; stroke-opacity: 1.000; stroke-width: 1; fill: #33b6d0; fill-opacity: 1.000"/>
<line x1="94" y1="290" x2="147" y2="290" style="stroke:#ffffff; stroke-width: 2; fill:none; opacity: 1.000; "/>
<line x1="147" y1="290" x2="147" y2="340" style="stroke:#ffffff; stroke-width: 2; fill:none; opacity: 1.000; "/>
<rect x="799" y="42" width="239" height="72" style="stroke:#808080; stroke-width: 0; fill-opacity: 0"/>
<rect x="823" y="47" width="10" height="10" style="stroke:#42a5b3; stroke-opacity: 1.000; stroke-width: 1; fill: #33b6d0; fill-opacity: 1.000"/>
<text x="862" y="56" style="text-anchor:begin; fill:#635f5d; font-family:Consolas, Menlo, Monaco, monospace, serif; font-size: 10">stage:all</text>
<rect x="823" y="64" width="10" height="10" style="stroke:#e3ba22; stroke-opacity: 1.000; stroke-width: 1; fill: #f2da57; fill-opacity: 1.000"/>
<text x="862" y="73" style="text-anchor:begin; fill:#635f5d; font-family:Consolas, Menlo, Monaco, monospace, serif; font-size: 10">stage:filter,input:batched</text>
<rect x="823" y="81" width="10" height="10" style="stroke:#8e6c8a; stroke-opacity: 1.000; stroke-width: 1; fill: #b396ad; fill-opacity: 1.000"/>
<text x="862" y="90" style="text-anchor:begin; fill:#635f5d; font-family:Consolas, Menlo, Monaco, monospace, serif; font-size: 10">stage:operate,type:impl</text>
<rect x="823" y="98" width="10" height="10" style="stroke:#0f8c79; stroke-opacity: 1.000; stroke-width: 1; fill: #7abfcc; fill-opacity: 1.000"/>
<text x="862" y="107" style="text-anchor:begin; fill:#635f5d; font-family:Consolas, Menlo, Monaco, monospace, serif; font-size: 10">stage:put</text>
</g>
<g style="font-family: Helvetica; font-size: 12">
<g transform="translate(0 400)">
<rect x="0" y="0" width="1000" height="400" style="stroke: #ffffff; opacity: 1.0000; fill: #ffffff; fill-opacity: 1.0000"/>
<text x="500" y="16" style="text-anchor:middle; fill:#635f5d; font-family:Consolas, Menlo, Monaco, monospace, serif">run</text>
<text x="530" y="394" style="text-anchor:middle">  Time [s]  </text>
<line x1="122" y1="346" x2="122" y2="358" style="stroke:#000000; stroke-width: 1; fill:none; opacity: 1.000; "/>
<text x="122" y="376" style="text-anchor:middle">534ms</text>
<line x1="208" y1="346" x2="208" y2="358" style="stroke:#000000; stroke-width: 1; fill:none; opacity: 1.000; "/>
<text x="208" y="376" style="text-anchor:middle">534ms</text>
<line x1="293" y1="346" x2="293" y2="358" style="stroke:#000000; stroke-width: 1; fill:none; opacity: 1.000; "/>
<text x="293" y="376" style="text-anchor:middle">534ms</text>
<line x1="378" y1="346" x2="378" y2="358" style="stroke:#000000; stroke-width: 1; fill:none; opacity: 1.000; "/>
<text x="378" y="376" style="text-anchor:middle">534ms</text>
<line x1="464" y1="346" x2="464" y2="358" style="stroke:#000000; stroke-width: 1; fill:none; opacity: 1.000; "/>
<text x="464" y="376" style="text-anchor:middle">534ms</text>
<line x1="549" y1="346" x2="549" y2="358" style="stroke:#000000; stroke-width: 1; fill:none; opacity: 1.000; "/>
<text x="549" y="376" style="text-anchor:middle">534ms</text>
<line x1="634" y1="346" x2="634" y2="358" style="stroke:#000000; stroke-width: 1; fill:none; opacity: 1.000; "/>
<text x="634" y="376" style="text-anchor:middle">535ms</text>
<line x1="720" y1="346" x2="720" y2="358" style="stroke:#000000; stroke-width: 1; fill:none; opacity: 1.000; "/>
<text x="720" y="376" style="text-anchor:middle">535ms</text>
<line x1="805" y1="346" x2="805" y2="358" style="stroke:#000000; stroke-width: 1; fill:none; opacity: 1.000; "/>
<text x="805" y="376" style="text-anchor:middle">535ms</text>
<line x1="890" y1="346" x2="890" y2="358" style="stroke:#000000; stroke-width: 1; fill:none; opacity: 1.000; "/>
<text x="890" y="376" style="text-anchor:middle">535ms</text>
<line x1="84" y1="352" x2="976" y2="352" style="stroke:#000000; stroke-width: 2; fill:none; opacity: 1.000; "/>
<text x="24" y="191" transform="rotate(-90 24 191)" style="text-anchor:middle">Frequency [count]</text>
<line x1="66" y1="340" x2="78" y2="340" style="stroke:#000000; stroke-width: 1; fill:none; opacity: 1.000; "/>
<text x="60" y="344" style="text-anchor:end">0</text>
<line x1="66" y1="281" x2="78" y2="281" style="stroke:#000000; stroke-width: 1; fill:none; opacity: 1.000; "/>
<text x="60" y="285" style="text-anchor:end">0</text>
<line x1="66" y1="221" x2="78" y2="221" style="stroke:#000000; stroke-width: 1; fill:none; opacity: 1.000; "/>
<text x="60" y="225" style="text-anchor:end">0</text>
<line x1="66" y1="162" x2="78" y2="162" style="stroke:#000000; stroke-width: 1; fill:none; opacity: 1.000; "/>
<text x="60" y="166" style="text-anchor:end">1</text>
<line x1="66" y1="102" x2="78" y2="102" style="stroke:#000000; stroke-width: 1; fill:none; opacity: 1.000; "/>
<text x="60" y="106" style="text-anchor:end">1</text>
<line x1="66" y1="42" x2="78" y2="42" style="stroke:#000000; stroke-width: 1; fill:none; opacity: 1.000; "/>
<text x="60" y="46" style="text-anchor:end">1</text>
<line x1="72" y1="340" x2="72" y2="42" style="stroke:#000000; stroke-width: 2; fill:none; opacity: 1.000; "/>
</g>
</g>
</svg>
